<svg width="36" height="36" viewBox="0 0 36 36" fill="none" xmlns="http://www.w3.org/2000/svg">
<mask id="path-1-inside-1_274_1887" fill="white">
<path fill-rule="evenodd" clip-rule="evenodd" d="M18.0008 34.7585C27.2563 34.7585 34.7594 27.2554 34.7594 17.9998C34.7594 8.7443 27.2563 1.24121 18.0008 1.24121C8.74528 1.24121 1.24219 8.7443 1.24219 17.9998C1.24219 27.2554 8.74528 34.7585 18.0008 34.7585ZM18.2412 22.562H17.2352C17.2352 22.562 15.0155 22.6956 13.0604 20.6601C10.9283 18.4402 9.04558 14.0352 9.04558 14.0352C9.04558 14.0352 8.937 13.7465 9.05501 13.6067C9.18765 13.4497 9.5486 13.4397 9.5486 13.4397L11.9536 13.4239C11.9536 13.4239 12.1802 13.4617 12.3424 13.5808C12.4761 13.6792 12.551 13.8628 12.551 13.8628C12.551 13.8628 12.9397 14.8459 13.4544 15.7352C14.4591 17.4713 14.9271 17.851 15.2682 17.665C15.7653 17.3939 15.6162 15.2109 15.6162 15.2109C15.6162 15.2109 15.6253 14.4185 15.3659 14.0656C15.1651 13.7924 14.7864 13.7124 14.619 13.6901C14.4837 13.672 14.7058 13.3579 14.9937 13.2169C15.4265 13.0049 16.1907 12.9929 17.0938 13.0021C17.7974 13.0093 18 13.0532 18.2751 13.1196C18.9134 13.2737 18.8935 13.7675 18.8506 14.8331C18.8377 15.1514 18.8228 15.5209 18.8228 15.9475C18.8228 16.0436 18.82 16.146 18.8172 16.2514C18.8022 16.797 18.7851 17.4215 19.1443 17.6536C19.3285 17.7727 19.7792 17.6714 20.9062 15.7578C21.4402 14.8508 21.8409 13.7845 21.8409 13.7845C21.8409 13.7845 21.9282 13.5943 22.0642 13.513C22.2033 13.4298 22.391 13.4553 22.391 13.4553L24.9218 13.4397C24.9218 13.4397 25.6824 13.349 25.8054 13.6923C25.9346 14.0526 25.5213 14.8938 24.4873 16.2719C23.5054 17.5807 23.0282 18.0617 23.073 18.4877C23.1057 18.7983 23.4159 19.0797 24.0102 19.6313C25.2559 20.7876 25.5881 21.3949 25.667 21.5391C25.6734 21.5507 25.6781 21.5594 25.6815 21.565C26.239 22.4895 25.0633 22.562 25.0633 22.562L22.8155 22.5935C22.8155 22.5935 22.3324 22.689 21.6968 22.2525C21.3644 22.0243 21.0395 21.6518 20.7299 21.2968C20.2565 20.754 19.8189 20.2523 19.4453 20.3708C18.8189 20.5696 18.8386 21.9195 18.8386 21.9195C18.8386 21.9195 18.8432 22.2078 18.7004 22.3614C18.545 22.5286 18.2412 22.562 18.2412 22.562Z"/>
</mask>
<path fill-rule="evenodd" clip-rule="evenodd" d="M18.0008 34.7585C27.2563 34.7585 34.7594 27.2554 34.7594 17.9998C34.7594 8.7443 27.2563 1.24121 18.0008 1.24121C8.74528 1.24121 1.24219 8.7443 1.24219 17.9998C1.24219 27.2554 8.74528 34.7585 18.0008 34.7585ZM18.2412 22.562H17.2352C17.2352 22.562 15.0155 22.6956 13.0604 20.6601C10.9283 18.4402 9.04558 14.0352 9.04558 14.0352C9.04558 14.0352 8.937 13.7465 9.05501 13.6067C9.18765 13.4497 9.5486 13.4397 9.5486 13.4397L11.9536 13.4239C11.9536 13.4239 12.1802 13.4617 12.3424 13.5808C12.4761 13.6792 12.551 13.8628 12.551 13.8628C12.551 13.8628 12.9397 14.8459 13.4544 15.7352C14.4591 17.4713 14.9271 17.851 15.2682 17.665C15.7653 17.3939 15.6162 15.2109 15.6162 15.2109C15.6162 15.2109 15.6253 14.4185 15.3659 14.0656C15.1651 13.7924 14.7864 13.7124 14.619 13.6901C14.4837 13.672 14.7058 13.3579 14.9937 13.2169C15.4265 13.0049 16.1907 12.9929 17.0938 13.0021C17.7974 13.0093 18 13.0532 18.2751 13.1196C18.9134 13.2737 18.8935 13.7675 18.8506 14.8331C18.8377 15.1514 18.8228 15.5209 18.8228 15.9475C18.8228 16.0436 18.82 16.146 18.8172 16.2514C18.8022 16.797 18.7851 17.4215 19.1443 17.6536C19.3285 17.7727 19.7792 17.6714 20.9062 15.7578C21.4402 14.8508 21.8409 13.7845 21.8409 13.7845C21.8409 13.7845 21.9282 13.5943 22.0642 13.513C22.2033 13.4298 22.391 13.4553 22.391 13.4553L24.9218 13.4397C24.9218 13.4397 25.6824 13.349 25.8054 13.6923C25.9346 14.0526 25.5213 14.8938 24.4873 16.2719C23.5054 17.5807 23.0282 18.0617 23.073 18.4877C23.1057 18.7983 23.4159 19.0797 24.0102 19.6313C25.2559 20.7876 25.5881 21.3949 25.667 21.5391C25.6734 21.5507 25.6781 21.5594 25.6815 21.565C26.239 22.4895 25.0633 22.562 25.0633 22.562L22.8155 22.5935C22.8155 22.5935 22.3324 22.689 21.6968 22.2525C21.3644 22.0243 21.0395 21.6518 20.7299 21.2968C20.2565 20.754 19.8189 20.2523 19.4453 20.3708C18.8189 20.5696 18.8386 21.9195 18.8386 21.9195C18.8386 21.9195 18.8432 22.2078 18.7004 22.3614C18.545 22.5286 18.2412 22.562 18.2412 22.562Z" fill="white"/>
<path d="M17.2352 22.562V21.562H17.2051L17.1751 21.5638L17.2352 22.562ZM18.2412 22.562V23.562H18.2962L18.3508 23.556L18.2412 22.562ZM13.0604 20.6601L12.3391 21.3528L12.3392 21.3528L13.0604 20.6601ZM9.04558 14.0352L8.10959 14.3872L8.11737 14.4079L8.12605 14.4282L9.04558 14.0352ZM9.05501 13.6067L8.29113 12.9614L8.29094 12.9616L9.05501 13.6067ZM9.5486 13.4397L9.54207 12.4397L9.53138 12.4397L9.5207 12.44L9.5486 13.4397ZM11.9536 13.4239L12.118 12.4375L12.0331 12.4234L11.9471 12.424L11.9536 13.4239ZM12.3424 13.5808L12.9348 12.7752L12.9344 12.7749L12.3424 13.5808ZM12.551 13.8628L13.4809 13.4951L13.477 13.4854L12.551 13.8628ZM13.4544 15.7352L14.3199 15.2343L14.3199 15.2343L13.4544 15.7352ZM15.2682 17.665L15.7469 18.543L15.747 18.543L15.2682 17.665ZM15.6162 15.2109L14.6163 15.1994L14.6159 15.2392L14.6186 15.279L15.6162 15.2109ZM15.3659 14.0656L14.5601 14.6578L14.5601 14.6578L15.3659 14.0656ZM14.619 13.6901L14.4867 14.6813L14.487 14.6814L14.619 13.6901ZM14.9937 13.2169L15.4335 14.115L15.4337 14.115L14.9937 13.2169ZM17.0938 13.0021L17.104 12.0022H17.1039L17.0938 13.0021ZM18.2751 13.1196L18.5098 12.1475L18.5097 12.1475L18.2751 13.1196ZM18.8506 14.8331L17.8514 14.7928L18.8506 14.8331ZM18.8172 16.2514L17.8175 16.224V16.224L18.8172 16.2514ZM19.1443 17.6536L18.6015 18.4935L18.6016 18.4936L19.1443 17.6536ZM20.9062 15.7578L21.7678 16.2653L21.7679 16.2652L20.9062 15.7578ZM21.8409 13.7845L20.9321 13.3672L20.9173 13.3995L20.9048 13.4327L21.8409 13.7845ZM22.0642 13.513L22.5776 14.3711L22.5778 14.371L22.0642 13.513ZM22.391 13.4553L22.2562 14.4462L22.3264 14.4557L22.3972 14.4553L22.391 13.4553ZM24.9218 13.4397L24.928 14.4396L24.9843 14.4393L25.0402 14.4326L24.9218 13.4397ZM25.8054 13.6923L24.8641 14.0297L24.8641 14.0297L25.8054 13.6923ZM24.4873 16.2719L23.6874 15.6718L23.6874 15.6718L24.4873 16.2719ZM23.073 18.4877L24.0675 18.3831V18.383L23.073 18.4877ZM24.0102 19.6313L24.6905 18.8984L24.6904 18.8983L24.0102 19.6313ZM25.667 21.5391L26.5443 21.0592L26.5443 21.0592L25.667 21.5391ZM25.6815 21.565L26.5378 21.0486L26.5374 21.0478L25.6815 21.565ZM25.0633 22.562L25.0772 23.5619L25.1011 23.5616L25.1248 23.5601L25.0633 22.562ZM22.8155 22.5935L22.8015 21.5936L22.7106 21.5948L22.6214 21.6125L22.8155 22.5935ZM21.6968 22.2525L22.2628 21.4281L22.2627 21.4281L21.6968 22.2525ZM20.7299 21.2968L21.4835 20.6395L20.7299 21.2968ZM19.4453 20.3708L19.143 19.4176L19.1429 19.4176L19.4453 20.3708ZM18.8386 21.9195L17.8387 21.9341L17.8387 21.9353L18.8386 21.9195ZM18.7004 22.3614L19.4329 23.0422L19.4329 23.0422L18.7004 22.3614ZM33.7594 17.9998C33.7594 26.7031 26.7041 33.7585 18.0008 33.7585V35.7585C27.8086 35.7585 35.7594 27.8076 35.7594 17.9998H33.7594ZM18.0008 2.24121C26.7041 2.24121 33.7594 9.29659 33.7594 17.9998H35.7594C35.7594 8.19202 27.8086 0.241211 18.0008 0.241211V2.24121ZM2.24219 17.9998C2.24219 9.29659 9.29756 2.24121 18.0008 2.24121V0.241211C8.19299 0.241211 0.242188 8.19202 0.242188 17.9998H2.24219ZM18.0008 33.7585C9.29756 33.7585 2.24219 26.7031 2.24219 17.9998H0.242188C0.242188 27.8076 8.19299 35.7585 18.0008 35.7585V33.7585ZM17.2352 23.562H18.2412V21.562H17.2352V23.562ZM12.3392 21.3528C13.4615 22.5213 14.6726 23.0778 15.6144 23.3382C16.0834 23.4679 16.4852 23.5243 16.7773 23.5479C16.9236 23.5597 17.0432 23.5634 17.131 23.5638C17.1749 23.564 17.211 23.5634 17.2385 23.5626C17.2523 23.5622 17.264 23.5618 17.2735 23.5614C17.2782 23.5612 17.2824 23.5609 17.286 23.5608C17.2879 23.5607 17.2895 23.5606 17.2911 23.5605C17.2918 23.5604 17.2926 23.5604 17.2933 23.5604C17.2936 23.5603 17.2941 23.5603 17.2943 23.5603C17.2948 23.5603 17.2953 23.5602 17.2352 22.562C17.1751 21.5638 17.1756 21.5638 17.176 21.5638C17.1762 21.5638 17.1766 21.5638 17.1769 21.5637C17.1775 21.5637 17.178 21.5637 17.1785 21.5637C17.1795 21.5636 17.1804 21.5635 17.1811 21.5635C17.1826 21.5634 17.1836 21.5634 17.1841 21.5634C17.185 21.5633 17.184 21.5634 17.181 21.5635C17.1751 21.5636 17.1616 21.5639 17.141 21.5638C17.0998 21.5636 17.0307 21.5618 16.9383 21.5544C16.7532 21.5394 16.4778 21.5019 16.1475 21.4106C15.4907 21.2289 14.6144 20.8344 13.7816 19.9674L12.3392 21.3528ZM9.04558 14.0352C8.12605 14.4282 8.1261 14.4283 8.12616 14.4285C8.12619 14.4285 8.12626 14.4287 8.12631 14.4288C8.12643 14.4291 8.12657 14.4294 8.12675 14.4298C8.12709 14.4306 8.12756 14.4317 8.12813 14.4331C8.12928 14.4357 8.13089 14.4395 8.13295 14.4442C8.13707 14.4538 8.14299 14.4674 8.15066 14.485C8.166 14.5202 8.18836 14.5711 8.21734 14.6361C8.27528 14.766 8.35977 14.9525 8.4676 15.1826C8.68303 15.6422 8.9929 16.2784 9.37161 16.9867C10.1171 18.381 11.1734 20.139 12.3391 21.3528L13.7816 19.9674C12.8153 18.9613 11.8642 17.4068 11.1353 16.0437C10.7768 15.3732 10.4828 14.7694 10.2785 14.3338C10.1766 14.1162 10.0973 13.9412 10.044 13.8215C10.0173 13.7617 9.99711 13.7158 9.98384 13.6854C9.9772 13.6702 9.97229 13.6588 9.96915 13.6515C9.96758 13.6479 9.96646 13.6453 9.96578 13.6437C9.96544 13.6429 9.96522 13.6424 9.96511 13.6422C9.96505 13.642 9.96502 13.642 9.96503 13.642C9.96503 13.642 9.96505 13.642 9.96505 13.642C9.96508 13.6421 9.96511 13.6422 9.04558 14.0352ZM8.29094 12.9616C7.93472 13.3835 7.99793 13.8835 8.01547 14.0103C8.02982 14.1141 8.05166 14.202 8.06875 14.262C8.07762 14.2931 8.08605 14.3196 8.09303 14.3404C8.09654 14.3509 8.09974 14.3601 8.10253 14.3679C8.10392 14.3718 8.10521 14.3754 8.10639 14.3786C8.10698 14.3802 8.10755 14.3817 8.10808 14.3832C8.10835 14.3839 8.10861 14.3846 8.10886 14.3853C8.10899 14.3856 8.10911 14.3859 8.10923 14.3863C8.10929 14.3864 8.10938 14.3867 8.10942 14.3867C8.10951 14.387 8.10959 14.3872 9.04558 14.0352C9.98157 13.6832 9.98166 13.6834 9.98175 13.6836C9.98178 13.6837 9.98187 13.6839 9.98192 13.6841C9.98204 13.6844 9.98215 13.6847 9.98227 13.685C9.98249 13.6856 9.98271 13.6862 9.98293 13.6868C9.98336 13.6879 9.98377 13.6891 9.98416 13.6901C9.98493 13.6922 9.98563 13.6942 9.98626 13.6959C9.98751 13.6994 9.98849 13.7023 9.98927 13.7046C9.99077 13.7091 9.99164 13.712 9.99217 13.7138C9.99259 13.7153 9.99466 13.7223 9.99662 13.7364C9.99796 13.7461 10.0046 13.7947 9.99446 13.8687C9.98442 13.9418 9.94958 14.0973 9.81907 14.2519L8.29094 12.9616ZM9.5486 13.4397C9.5207 12.44 9.52049 12.44 9.52028 12.4401C9.52021 12.4401 9.52 12.4401 9.51985 12.4401C9.51956 12.4401 9.51927 12.4401 9.51897 12.4401C9.51836 12.4401 9.51773 12.4401 9.51708 12.4401C9.51577 12.4402 9.51437 12.4402 9.51286 12.4403C9.50985 12.4404 9.50644 12.4405 9.50265 12.4407C9.49509 12.441 9.48597 12.4414 9.47545 12.442C9.45453 12.4432 9.42755 12.4451 9.39594 12.4481C9.33437 12.454 9.24721 12.4647 9.14855 12.4851C9.02335 12.5111 8.59388 12.603 8.29113 12.9614L9.81888 14.2521C9.71735 14.3723 9.61456 14.4193 9.58976 14.4302C9.55775 14.4442 9.54302 14.4459 9.55454 14.4435C9.5627 14.4418 9.57407 14.4402 9.58433 14.4392C9.58863 14.4388 9.59088 14.4387 9.59021 14.4387C9.58983 14.4388 9.58859 14.4388 9.58638 14.4389C9.58527 14.439 9.5839 14.439 9.58227 14.4391C9.58145 14.4391 9.58056 14.4391 9.5796 14.4392C9.57912 14.4392 9.57862 14.4392 9.57811 14.4392C9.57785 14.4392 9.57759 14.4392 9.57732 14.4392C9.57719 14.4392 9.57698 14.4392 9.57692 14.4393C9.57671 14.4393 9.57651 14.4393 9.5486 13.4397ZM11.9471 12.424L9.54207 12.4397L9.55513 14.4396L11.9602 14.4239L11.9471 12.424ZM12.9344 12.7749C12.7284 12.6236 12.5149 12.5442 12.3888 12.5043C12.3192 12.4823 12.2585 12.4669 12.2131 12.4565C12.1901 12.4513 12.1703 12.4472 12.1544 12.4441C12.1464 12.4426 12.1393 12.4413 12.1332 12.4402C12.1302 12.4396 12.1274 12.4392 12.1249 12.4387C12.1236 12.4385 12.1224 12.4383 12.1212 12.4381C12.1207 12.438 12.1201 12.4379 12.1196 12.4378C12.1193 12.4378 12.119 12.4377 12.1188 12.4377C12.1186 12.4377 12.1184 12.4376 12.1184 12.4376C12.1182 12.4376 12.118 12.4375 11.9536 13.4239C11.7893 14.4103 11.7891 14.4103 11.7889 14.4103C11.7888 14.4103 11.7887 14.4102 11.7885 14.4102C11.7883 14.4102 11.788 14.4101 11.7878 14.4101C11.7873 14.41 11.7868 14.4099 11.7864 14.4099C11.7854 14.4097 11.7846 14.4095 11.7837 14.4094C11.782 14.4091 11.7805 14.4088 11.7792 14.4086C11.7765 14.4081 11.7745 14.4077 11.773 14.4075C11.7701 14.4069 11.7693 14.4067 11.7701 14.4069C11.7722 14.4074 11.7783 14.4088 11.7856 14.4112C11.8133 14.4199 11.7942 14.419 11.7503 14.3867L12.9344 12.7749ZM12.551 13.8628C13.477 13.4854 13.4769 13.4852 13.4768 13.485C13.4768 13.485 13.4767 13.4848 13.4767 13.4846C13.4766 13.4844 13.4764 13.4841 13.4763 13.4838C13.4761 13.4832 13.4759 13.4827 13.4756 13.4821C13.4752 13.4809 13.4747 13.4797 13.4741 13.4784C13.4731 13.4759 13.4719 13.4732 13.4707 13.4702C13.4682 13.4643 13.4652 13.4575 13.4619 13.45C13.4553 13.435 13.4469 13.4167 13.4367 13.3958C13.4168 13.3547 13.3883 13.3 13.351 13.2388C13.2858 13.1316 13.1529 12.9356 12.9348 12.7752L11.7499 14.3864C11.7021 14.3512 11.6741 14.3197 11.6625 14.3058C11.6501 14.2908 11.644 14.281 11.6426 14.2786C11.6407 14.2756 11.6394 14.273 11.6376 14.2694C11.6366 14.2672 11.6351 14.2641 11.633 14.2595C11.632 14.2572 11.6308 14.2545 11.6295 14.2513C11.6288 14.2497 11.6281 14.248 11.6273 14.2462C11.627 14.2452 11.6266 14.2443 11.6262 14.2433C11.626 14.2428 11.6258 14.2423 11.6255 14.2418C11.6254 14.2415 11.6253 14.2413 11.6252 14.241C11.6252 14.2409 11.6251 14.2407 11.6251 14.2406C11.625 14.2404 11.6249 14.2402 12.551 13.8628ZM14.3199 15.2343C14.0854 14.8292 13.8748 14.3938 13.7207 14.0533C13.6444 13.8845 13.5834 13.7425 13.5419 13.6435C13.5212 13.5941 13.5054 13.5557 13.495 13.5302C13.4899 13.5175 13.486 13.508 13.4837 13.5021C13.4825 13.4991 13.4816 13.497 13.4812 13.4958C13.4809 13.4953 13.4808 13.4949 13.4808 13.4948C13.4807 13.4947 13.4807 13.4947 13.4808 13.4948C13.4808 13.4948 13.4808 13.4948 13.4808 13.4949C13.4808 13.4949 13.4808 13.495 13.4808 13.495C13.4809 13.495 13.4809 13.4951 12.551 13.8628C11.621 14.2306 11.621 14.2306 11.6211 14.2307C11.6211 14.2307 11.6211 14.2308 11.6211 14.2309C11.6212 14.231 11.6212 14.2311 11.6213 14.2313C11.6214 14.2316 11.6216 14.2319 11.6217 14.2323C11.622 14.2332 11.6225 14.2342 11.623 14.2355C11.624 14.2381 11.6254 14.2417 11.6272 14.2461C11.6308 14.255 11.6358 14.2675 11.6423 14.2834C11.6552 14.3152 11.6738 14.3605 11.6976 14.4171C11.745 14.5303 11.8134 14.6896 11.8986 14.8778C12.0675 15.2511 12.3087 15.752 12.5889 16.2361L14.3199 15.2343ZM14.7895 16.7871C14.951 16.699 15.1482 16.6863 15.3041 16.7393C15.4077 16.7746 15.4155 16.8132 15.3215 16.7181C15.1336 16.5279 14.8192 16.0971 14.3199 15.2343L12.5889 16.2361C13.0943 17.1094 13.5162 17.7365 13.8988 18.1237C14.09 18.3173 14.3416 18.5245 14.6603 18.6329C15.0312 18.759 15.4149 18.724 15.7469 18.543L14.7895 16.7871ZM15.6162 15.2109C14.6186 15.279 14.6186 15.2789 14.6186 15.2788C14.6186 15.2788 14.6185 15.2787 14.6185 15.2786C14.6185 15.2785 14.6185 15.2785 14.6185 15.2785C14.6185 15.2784 14.6185 15.2785 14.6186 15.2787C14.6186 15.2791 14.6186 15.2801 14.6187 15.2815C14.6189 15.2843 14.6192 15.2891 14.6196 15.2958C14.6204 15.3091 14.6216 15.3297 14.623 15.3567C14.6258 15.4107 14.6294 15.4897 14.6322 15.5859C14.638 15.7801 14.6406 16.0357 14.6296 16.2934C14.6181 16.5601 14.5935 16.7878 14.5578 16.9427C14.5398 17.0209 14.5274 17.0426 14.5343 17.0289C14.5355 17.0266 14.6011 16.8898 14.7894 16.7871L15.747 18.543C16.0596 18.3725 16.2293 18.1082 16.3175 17.9346C16.4114 17.7496 16.4689 17.5562 16.5068 17.3917C16.583 17.061 16.6143 16.6921 16.6277 16.3791C16.6415 16.0572 16.638 15.75 16.6313 15.5265C16.628 15.4138 16.6238 15.3201 16.6204 15.2537C16.6186 15.2205 16.6171 15.1939 16.616 15.1751C16.6154 15.1657 16.6149 15.1582 16.6146 15.1528C16.6144 15.1501 16.6143 15.1479 16.6142 15.1462C16.6141 15.1453 16.6141 15.1446 16.614 15.1441C16.614 15.1438 16.614 15.1435 16.614 15.1433C16.614 15.1432 16.6139 15.143 16.6139 15.143C16.6139 15.1429 16.6139 15.1427 15.6162 15.2109ZM14.5601 14.6578C14.5267 14.6123 14.534 14.6023 14.5534 14.6698C14.5701 14.7278 14.5849 14.8052 14.596 14.8942C14.6068 14.9806 14.612 15.0618 14.6144 15.1217C14.6156 15.151 14.616 15.1738 14.6162 15.1877C14.6163 15.1946 14.6163 15.1993 14.6163 15.2014C14.6163 15.2024 14.6163 15.2028 14.6163 15.2025C14.6163 15.2023 14.6163 15.202 14.6163 15.2015C14.6163 15.2012 14.6163 15.2009 14.6163 15.2006C14.6163 15.2004 14.6163 15.2002 14.6163 15.2C14.6163 15.1999 14.6163 15.1998 14.6163 15.1997C14.6163 15.1996 14.6163 15.1994 15.6162 15.2109C16.6162 15.2223 16.6162 15.2221 16.6162 15.222C16.6162 15.2219 16.6162 15.2217 16.6162 15.2216C16.6162 15.2214 16.6162 15.2211 16.6162 15.2209C16.6162 15.2203 16.6162 15.2197 16.6162 15.2191C16.6162 15.2178 16.6162 15.2164 16.6162 15.2147C16.6163 15.2114 16.6163 15.2073 16.6163 15.2024C16.6163 15.1927 16.6162 15.18 16.6161 15.1646C16.6157 15.1338 16.6148 15.0919 16.6128 15.0414C16.6088 14.9417 16.6001 14.8027 16.5807 14.647C16.5494 14.3958 16.4678 13.8763 16.1717 13.4734L14.5601 14.6578ZM14.487 14.6814C14.501 14.6832 14.5217 14.6866 14.545 14.6922C14.5688 14.6979 14.5893 14.7045 14.6048 14.7107C14.6208 14.7172 14.6232 14.72 14.6161 14.7151C14.6083 14.7096 14.5853 14.6921 14.5601 14.6578L16.1717 13.4734C15.9229 13.1348 15.5948 12.9538 15.355 12.8568C15.11 12.7576 14.8843 12.7166 14.7511 12.6989L14.487 14.6814ZM14.5539 12.3188C14.2597 12.4629 14.0128 12.6817 13.8507 12.8955C13.7851 12.9822 13.6458 13.1796 13.5965 13.4475C13.5709 13.5866 13.5455 13.8806 13.7256 14.1826C13.9292 14.524 14.2563 14.6506 14.4867 14.6813L14.7514 12.6989C14.9479 12.7252 15.2524 12.838 15.4433 13.1582C15.6108 13.439 15.5828 13.7044 15.5635 13.8092C15.542 13.9262 15.5028 14.0055 15.4869 14.0357C15.4676 14.0724 15.4512 14.095 15.4446 14.1037C15.4317 14.1207 15.4399 14.1119 15.4335 14.115L14.5539 12.3188ZM17.1039 12.0022C16.6536 11.9976 16.1961 11.9974 15.7885 12.0297C15.3993 12.0605 14.945 12.1272 14.5538 12.3189L15.4337 14.115C15.4752 14.0946 15.6194 14.0493 15.9463 14.0235C16.2547 13.999 16.6308 13.9975 17.0836 14.0021L17.1039 12.0022ZM18.5097 12.1475C18.1517 12.0611 17.8729 12.01 17.104 12.0022L17.0836 14.0021C17.4192 14.0055 17.6063 14.0176 17.7293 14.0319C17.8415 14.045 17.9143 14.0612 18.0405 14.0917L18.5097 12.1475ZM19.8497 14.8733C19.8684 14.4095 19.9015 13.8414 19.788 13.3905C19.721 13.1241 19.591 12.8315 19.3366 12.5847C19.0855 12.3411 18.7877 12.2146 18.5098 12.1475L18.0404 14.0917C18.0816 14.1016 18.0207 14.0946 17.944 14.0203C17.8641 13.9427 17.8461 13.8691 17.8485 13.8786C17.8546 13.9025 17.8668 13.9765 17.8686 14.1479C17.8703 14.3158 17.8624 14.5185 17.8514 14.7928L19.8497 14.8733ZM19.8228 15.9475C19.8228 15.5433 19.8369 15.1921 19.8497 14.8733L17.8514 14.7928C17.8386 15.1108 17.8228 15.4984 17.8228 15.9475H19.8228ZM19.8168 16.2788C19.8196 16.1764 19.8228 16.0598 19.8228 15.9475H17.8228C17.8228 16.0274 17.8205 16.1156 17.8175 16.224L19.8168 16.2788ZM19.6871 16.8138C19.7803 16.874 19.8243 16.9462 19.8382 16.9747C19.8485 16.9957 19.8391 16.9852 19.8289 16.9188C19.8192 16.8551 19.8129 16.769 19.8114 16.6543C19.8098 16.5394 19.8129 16.4187 19.8168 16.2787L17.8175 16.224C17.8107 16.4742 17.797 16.862 17.8519 17.2213C17.9038 17.5607 18.0541 18.1397 18.6015 18.4935L19.6871 16.8138ZM20.0445 15.2503C19.4927 16.1872 19.1609 16.5819 19.0017 16.7256C18.9224 16.7971 18.9529 16.7444 19.0834 16.7099C19.2598 16.6633 19.4883 16.6853 19.687 16.8137L18.6016 18.4936C18.8925 18.6815 19.2464 18.7355 19.5943 18.6435C19.8963 18.5638 20.1444 18.3884 20.3418 18.2103C20.7357 17.8547 21.1926 17.242 21.7678 16.2653L20.0445 15.2503ZM21.8409 13.7845C20.9048 13.4327 20.9048 13.4326 20.9049 13.4326C20.9049 13.4326 20.9049 13.4325 20.9049 13.4325C20.9049 13.4324 20.9049 13.4323 20.905 13.4323C20.905 13.4322 20.905 13.4322 20.905 13.4323C20.9049 13.4324 20.9048 13.4328 20.9045 13.4334C20.9041 13.4347 20.9032 13.4369 20.902 13.4401C20.8996 13.4465 20.8957 13.4567 20.8904 13.4703C20.8797 13.4977 20.8635 13.5391 20.8422 13.5921C20.7995 13.6982 20.7368 13.85 20.6583 14.0288C20.4993 14.3907 20.2835 14.8444 20.0444 15.2504L21.7679 16.2652C22.0629 15.7642 22.3145 15.2313 22.4893 14.8333C22.5777 14.6321 22.6486 14.4606 22.6977 14.3384C22.7223 14.2773 22.7416 14.2283 22.7549 14.1938C22.7616 14.1766 22.7668 14.1629 22.7705 14.1533C22.7724 14.1484 22.7738 14.1446 22.7749 14.1417C22.7755 14.1403 22.7759 14.1391 22.7762 14.1382C22.7764 14.1378 22.7766 14.1374 22.7767 14.137C22.7768 14.1369 22.7768 14.1367 22.7769 14.1366C22.7769 14.1365 22.7769 14.1364 22.7769 14.1364C22.777 14.1363 22.777 14.1363 21.8409 13.7845ZM21.5508 12.6548C21.2948 12.808 21.1398 13.02 21.0719 13.121C21.0306 13.1823 20.9988 13.2375 20.9767 13.2784C20.9654 13.2993 20.9561 13.3176 20.9488 13.3324C20.9451 13.3399 20.9418 13.3466 20.9391 13.3524C20.9377 13.3553 20.9364 13.358 20.9353 13.3604C20.9347 13.3617 20.9341 13.3629 20.9336 13.364C20.9333 13.3645 20.9331 13.3651 20.9328 13.3656C20.9327 13.3659 20.9326 13.3662 20.9325 13.3664C20.9324 13.3666 20.9323 13.3667 20.9323 13.3668C20.9322 13.367 20.9321 13.3672 21.8409 13.7845C22.7497 14.2018 22.7496 14.202 22.7495 14.2021C22.7495 14.2022 22.7494 14.2024 22.7493 14.2025C22.7492 14.2028 22.7491 14.203 22.749 14.2033C22.7488 14.2037 22.7485 14.2042 22.7483 14.2047C22.7479 14.2056 22.7475 14.2066 22.7471 14.2074C22.7462 14.2092 22.7455 14.2108 22.7448 14.2123C22.7433 14.2153 22.7421 14.2178 22.7411 14.2199C22.739 14.224 22.7376 14.2268 22.7366 14.2286C22.7351 14.2314 22.7337 14.2338 22.7312 14.2375C22.7294 14.2402 22.7207 14.253 22.7031 14.272C22.687 14.2892 22.6464 14.33 22.5776 14.3711L21.5508 12.6548ZM22.391 13.4553C22.5258 12.4644 22.5256 12.4644 22.5253 12.4644C22.5252 12.4643 22.525 12.4643 22.5248 12.4643C22.5244 12.4642 22.5241 12.4642 22.5237 12.4641C22.523 12.464 22.5223 12.4639 22.5215 12.4638C22.52 12.4637 22.5185 12.4634 22.5169 12.4632C22.5136 12.4628 22.5101 12.4624 22.5064 12.462C22.499 12.4611 22.4906 12.4602 22.4814 12.4592C22.4629 12.4574 22.4405 12.4556 22.4148 12.4541C22.3643 12.4513 22.2964 12.4499 22.2175 12.4549C22.0782 12.4636 21.815 12.4967 21.5507 12.6549L22.5778 14.371C22.4525 14.446 22.3527 14.4503 22.3421 14.451C22.3274 14.4519 22.3152 14.4517 22.3043 14.4511C22.2983 14.4508 22.2917 14.4502 22.284 14.4495C22.2802 14.4491 22.276 14.4486 22.2714 14.4481C22.2691 14.4478 22.2667 14.4475 22.2641 14.4472C22.2629 14.4471 22.2616 14.4469 22.2603 14.4467C22.2596 14.4466 22.259 14.4465 22.2583 14.4464C22.2579 14.4464 22.2576 14.4464 22.2573 14.4463C22.2571 14.4463 22.2568 14.4463 22.2567 14.4462C22.2565 14.4462 22.2562 14.4462 22.391 13.4553ZM24.9157 12.4397L22.3849 12.4553L22.3972 14.4553L24.928 14.4396L24.9157 12.4397ZM26.7468 13.3549C26.5914 12.9212 26.2558 12.6993 26.025 12.5957C25.7969 12.4933 25.5698 12.4572 25.4155 12.442C25.2511 12.4258 25.1022 12.4274 24.9998 12.4318C24.9469 12.434 24.9023 12.4372 24.8691 12.4401C24.8524 12.4415 24.8384 12.4429 24.8273 12.444C24.8218 12.4446 24.817 12.4451 24.8131 12.4456C24.8111 12.4458 24.8093 12.446 24.8077 12.4462C24.8069 12.4463 24.8061 12.4464 24.8054 12.4465C24.805 12.4465 24.8047 12.4465 24.8044 12.4466C24.8042 12.4466 24.804 12.4466 24.8039 12.4466C24.8037 12.4467 24.8034 12.4467 24.9218 13.4397C25.0402 14.4326 25.04 14.4326 25.0398 14.4327C25.0397 14.4327 25.0395 14.4327 25.0394 14.4327C25.0391 14.4328 25.0388 14.4328 25.0386 14.4328C25.038 14.4329 25.0376 14.4329 25.0371 14.433C25.0363 14.4331 25.0356 14.4332 25.035 14.4332C25.0339 14.4333 25.0334 14.4334 25.0335 14.4334C25.0337 14.4334 25.0361 14.4331 25.0404 14.4327C25.0493 14.432 25.0651 14.4308 25.0854 14.4299C25.1294 14.428 25.1784 14.4284 25.2195 14.4324C25.2707 14.4374 25.2568 14.4431 25.2059 14.4203C25.1524 14.3962 24.958 14.2916 24.8641 14.0297L26.7468 13.3549ZM25.2872 16.872C25.818 16.1647 26.2197 15.5559 26.4748 15.052C26.6019 14.8008 26.7095 14.5431 26.771 14.2898C26.8288 14.0523 26.8737 13.7088 26.7468 13.3548L24.8641 14.0297C24.8018 13.8559 24.8434 13.7527 24.8277 13.8172C24.8158 13.8661 24.7796 13.9724 24.6903 14.1488C24.5125 14.5001 24.1907 15.0011 23.6874 15.6718L25.2872 16.872ZM24.0675 18.383C24.0883 18.5805 23.9676 18.6362 24.2138 18.2851C24.4427 17.9588 24.7562 17.5799 25.2872 16.872L23.6874 15.6718C23.2366 16.2727 22.8205 16.7887 22.5764 17.1366C22.3498 17.4597 22.0129 17.9689 22.0785 18.5924L24.0675 18.383ZM24.6904 18.8983C24.3741 18.6047 24.1964 18.4396 24.0834 18.3105C23.9714 18.1825 24.0512 18.228 24.0675 18.3831L22.0785 18.5924C22.1275 19.058 22.3787 19.3995 22.5785 19.6278C22.7774 19.8549 23.0519 20.1063 23.3299 20.3643L24.6904 18.8983ZM26.5443 21.0592C26.409 20.8118 26.0075 20.1208 24.6905 18.8984L23.3299 20.3642C24.5044 21.4545 24.7672 21.9779 24.7897 22.019L26.5443 21.0592ZM26.5374 21.0478C26.5418 21.0551 26.545 21.0607 26.5465 21.0634C26.5482 21.0662 26.5492 21.068 26.5492 21.0681C26.5493 21.0682 26.549 21.0677 26.5481 21.066C26.5471 21.0643 26.546 21.0623 26.5443 21.0592L24.7896 22.0189C24.7907 22.0209 24.8082 22.0534 24.8256 22.0822L26.5374 21.0478ZM25.0633 22.562C25.1248 23.5601 25.1252 23.5601 25.1256 23.5601C25.1258 23.5601 25.1262 23.5601 25.1265 23.56C25.1271 23.56 25.1276 23.56 25.1283 23.5599C25.1295 23.5598 25.1308 23.5598 25.1321 23.5597C25.1349 23.5595 25.138 23.5593 25.1414 23.559C25.1481 23.5585 25.1561 23.5579 25.1653 23.557C25.1836 23.5554 25.2067 23.5531 25.2338 23.5498C25.2874 23.5432 25.3597 23.5325 25.4431 23.5151C25.597 23.4829 25.8472 23.416 26.0935 23.2691C26.3451 23.1192 26.6796 22.8295 26.7941 22.3374C26.9066 21.8537 26.7524 21.4043 26.5378 21.0486L24.8252 22.0815C24.8894 22.188 24.7973 22.0943 24.8461 21.8842C24.897 21.6657 25.0421 21.5675 25.0694 21.5513C25.0914 21.5381 25.0826 21.5472 25.0334 21.5575C25.0153 21.5613 25.0001 21.5634 24.9916 21.5645C24.9876 21.565 24.986 21.5651 24.9874 21.565C24.988 21.5649 24.9895 21.5648 24.9919 21.5646C24.993 21.5645 24.9944 21.5644 24.9961 21.5643C24.9969 21.5642 24.9978 21.5642 24.9987 21.5641C24.9992 21.5641 24.9996 21.5641 25.0001 21.564C25.0004 21.564 25.0008 21.564 25.0009 21.564C25.0013 21.564 25.0017 21.5639 25.0633 22.562ZM22.8294 23.5934L25.0772 23.5619L25.0493 21.5621L22.8015 21.5936L22.8294 23.5934ZM21.1307 23.0768C21.5789 23.3846 22.0017 23.5228 22.343 23.5751C22.5114 23.6009 22.6556 23.6052 22.7687 23.6008C22.8252 23.5986 22.8741 23.5943 22.9144 23.5894C22.9345 23.5869 22.9526 23.5843 22.9685 23.5818C22.9764 23.5805 22.9838 23.5792 22.9907 23.578C22.9941 23.5774 22.9974 23.5768 23.0005 23.5762C23.0021 23.5759 23.0036 23.5756 23.0051 23.5753C23.0059 23.5752 23.0066 23.575 23.0073 23.5749C23.0077 23.5748 23.0082 23.5747 23.0084 23.5747C23.009 23.5746 23.0095 23.5744 22.8155 22.5935C22.6214 21.6125 22.622 21.6124 22.6225 21.6122C22.6227 21.6122 22.6232 21.6121 22.6236 21.612C22.6243 21.6119 22.625 21.6118 22.6257 21.6116C22.627 21.6114 22.6284 21.6111 22.6297 21.6109C22.6324 21.6104 22.635 21.6099 22.6375 21.6094C22.6424 21.6085 22.647 21.6078 22.6513 21.6071C22.6598 21.6057 22.6669 21.6047 22.6726 21.604C22.684 21.6027 22.6901 21.6024 22.6914 21.6023C22.694 21.6022 22.6778 21.6031 22.6459 21.5982C22.5868 21.5891 22.4503 21.5569 22.2628 21.4281L21.1307 23.0768ZM19.9763 21.9542C20.2599 22.2794 20.6722 22.7621 21.1308 23.0769L22.2627 21.4281C22.0566 21.2866 21.8191 21.0242 21.4835 20.6395L19.9763 21.9542ZM19.7477 21.324C19.5733 21.3793 19.4323 21.3434 19.3778 21.3224C19.3371 21.3067 19.3462 21.3012 19.4119 21.3557C19.4727 21.4061 19.5506 21.4813 19.651 21.5889C19.7508 21.6958 19.8555 21.8157 19.9763 21.9542L21.4835 20.6395C21.2646 20.3885 20.9794 20.0572 20.6884 19.816C20.4474 19.6162 19.8656 19.1884 19.143 19.4176L19.7477 21.324ZM18.8386 21.9195C19.8385 21.9049 19.8385 21.9051 19.8385 21.9054C19.8385 21.9054 19.8385 21.9056 19.8385 21.9058C19.8385 21.906 19.8385 21.9063 19.8385 21.9065C19.8385 21.907 19.8385 21.9073 19.8385 21.9076C19.8385 21.9082 19.8385 21.9085 19.8385 21.9085C19.8385 21.9086 19.8385 21.9074 19.8385 21.9052C19.8385 21.9007 19.8386 21.8919 19.8388 21.8795C19.8393 21.8544 19.8405 21.8153 19.8435 21.7666C19.8496 21.6662 19.8625 21.54 19.8872 21.4182C19.9136 21.2877 19.9437 21.2123 19.9595 21.184C19.9755 21.1553 19.9218 21.2687 19.7478 21.3239L19.1429 19.4176C18.6557 19.5723 18.3695 19.929 18.2131 20.2092C18.0564 20.49 17.9739 20.7893 17.927 21.0212C17.8783 21.2617 17.8569 21.4855 17.8472 21.6443C17.8422 21.7253 17.8401 21.7932 17.8392 21.8427C17.8387 21.8676 17.8386 21.888 17.8385 21.9034C17.8385 21.9111 17.8386 21.9176 17.8386 21.9227C17.8386 21.9253 17.8386 21.9275 17.8387 21.9294C17.8387 21.9304 17.8387 21.9312 17.8387 21.932C17.8387 21.9324 17.8387 21.9328 17.8387 21.9331C17.8387 21.9333 17.8387 21.9335 17.8387 21.9336C17.8387 21.9338 17.8387 21.9341 18.8386 21.9195ZM19.4329 23.0422C19.6998 22.755 19.7787 22.4159 19.8067 22.2629C19.8239 22.1691 19.8316 22.0873 19.8352 22.0281C19.8371 21.9979 19.838 21.9718 19.8383 21.951C19.8385 21.9406 19.8386 21.9313 19.8386 21.9234C19.8386 21.9195 19.8386 21.9159 19.8386 21.9126C19.8386 21.9109 19.8386 21.9093 19.8385 21.9079C19.8385 21.9071 19.8385 21.9064 19.8385 21.9057C19.8385 21.9054 19.8385 21.905 19.8385 21.9047C19.8385 21.9045 19.8385 21.9043 19.8385 21.9042C19.8385 21.9039 19.8385 21.9037 18.8386 21.9195C17.8387 21.9353 17.8387 21.9351 17.8387 21.9348C17.8387 21.9348 17.8387 21.9345 17.8387 21.9344C17.8387 21.934 17.8387 21.9337 17.8387 21.9334C17.8387 21.9328 17.8387 21.9322 17.8387 21.9316C17.8387 21.9304 17.8387 21.9292 17.8386 21.9281C17.8386 21.9259 17.8386 21.9239 17.8386 21.9221C17.8386 21.9185 17.8387 21.9156 17.8387 21.9134C17.8388 21.9089 17.8389 21.9066 17.839 21.9058C17.839 21.9054 17.8389 21.9053 17.8394 21.9028C17.8395 21.902 17.8427 21.8836 17.8551 21.8529C17.8667 21.824 17.898 21.7559 17.9679 21.6806L19.4329 23.0422ZM18.2412 22.562C18.3508 23.556 18.351 23.556 18.3513 23.556C18.3514 23.556 18.3516 23.5559 18.3518 23.5559C18.3521 23.5559 18.3524 23.5558 18.3528 23.5558C18.3534 23.5557 18.3541 23.5557 18.3548 23.5556C18.3563 23.5554 18.3578 23.5552 18.3594 23.555C18.3626 23.5547 18.3662 23.5542 18.3701 23.5537C18.3779 23.5527 18.387 23.5515 18.3974 23.55C18.418 23.5471 18.4439 23.5429 18.474 23.5373C18.5331 23.5263 18.6141 23.5086 18.7059 23.4804C18.86 23.4331 19.1764 23.3182 19.4329 23.0422L17.9679 21.6806C18.0691 21.5718 18.1558 21.5572 18.1192 21.5684C18.1157 21.5695 18.1109 21.5706 18.1082 21.5711C18.1074 21.5712 18.1084 21.571 18.1118 21.5705C18.1136 21.5703 18.116 21.5699 18.1193 21.5695C18.1209 21.5693 18.1227 21.5691 18.1248 21.5688C18.1258 21.5687 18.1269 21.5686 18.1281 21.5685C18.1286 21.5684 18.1292 21.5683 18.1298 21.5683C18.1301 21.5682 18.1304 21.5682 18.1307 21.5682C18.1309 21.5681 18.1311 21.5681 18.1312 21.5681C18.1314 21.5681 18.1317 21.5681 18.2412 22.562Z" fill="white" mask="url(#path-1-inside-1_274_1887)"/>
</svg>
